<svg width="38" height="91" viewBox="0 0 38 91" fill="none" xmlns="http://www.w3.org/2000/svg">
<path d="M35.7179 4.56426C34.4891 4.56426 33.4358 3.51097 33.4358 2.28213C33.4358 1.05329 34.4891 0 35.7179 0C36.9468 0 38.0001 1.05329 38.0001 2.28213C38.0001 3.51097 37.0345 4.56426 35.7179 4.56426Z" fill="#DCA74A"/>
<path d="M35.7179 21.7681C34.4891 21.7681 33.4358 20.7148 33.4358 19.4859C33.4358 18.2571 34.4891 17.2038 35.7179 17.2038C36.9468 17.2038 38.0001 18.2571 38.0001 19.4859C38.0001 20.7148 37.0345 21.7681 35.7179 21.7681Z" fill="#DCA74A"/>
<path d="M35.7179 38.884C34.4891 38.884 33.4358 37.8307 33.4358 36.6019C33.4358 35.3731 34.4891 34.3198 35.7179 34.3198C36.9468 34.3198 38.0001 35.3731 38.0001 36.6019C38.0001 37.9185 37.0345 38.884 35.7179 38.884Z" fill="#DCA74A"/>
<path d="M35.7179 56.0878C34.4891 56.0878 33.4358 55.0345 33.4358 53.8056C33.4358 52.5768 34.4891 51.5235 35.7179 51.5235C36.9468 51.5235 38.0001 52.5768 38.0001 53.8056C38.0001 55.1222 37.0345 56.0878 35.7179 56.0878Z" fill="#DCA74A"/>
<path d="M35.7179 73.2916C34.4891 73.2916 33.4358 72.2383 33.4358 71.0094C33.4358 69.7806 34.4891 68.7273 35.7179 68.7273C36.9468 68.7273 38.0001 69.7806 38.0001 71.0094C38.0001 72.2383 37.0345 73.2916 35.7179 73.2916Z" fill="#DCA74A"/>
<path d="M35.7179 90.4953C34.4891 90.4953 33.4358 89.442 33.4358 88.2132C33.4358 86.9843 34.4891 85.931 35.7179 85.931C36.9468 85.931 38.0001 86.9843 38.0001 88.2132C38.0001 89.442 37.0345 90.4953 35.7179 90.4953Z" fill="#DCA74A"/>
<path d="M10 4.56426C8.77119 4.56426 7.7179 3.51097 7.7179 2.28213C7.7179 1.05329 8.77119 0 10 0C11.2289 0 12.2822 1.05329 12.2822 2.28213C12.2822 3.51097 11.2289 4.56426 10 4.56426Z" fill="#DCA74A"/>
<path d="M10 21.7681C8.77119 21.7681 7.7179 20.7148 7.7179 19.4859C7.7179 18.2571 8.77119 17.2038 10 17.2038C11.2289 17.2038 12.2822 18.2571 12.2822 19.4859C12.2822 20.7148 11.2289 21.7681 10 21.7681Z" fill="#DCA74A"/>
<path d="M10 38.884C8.77119 38.884 7.7179 37.8307 7.7179 36.6019C7.7179 35.3731 8.77119 34.3198 10 34.3198C11.2289 34.3198 12.2822 35.3731 12.2822 36.6019C12.2822 37.9185 11.2289 38.884 10 38.884Z" fill="#DCA74A"/>
<path d="M10 56.0878C8.77119 56.0878 7.7179 55.0345 7.7179 53.8056C7.7179 52.5768 8.77119 51.5235 10 51.5235C11.2289 51.5235 12.2822 52.5768 12.2822 53.8056C12.2822 55.1222 11.2289 56.0878 10 56.0878Z" fill="#DCA74A"/>
<path d="M10 73.2916C8.77119 73.2916 7.7179 72.2383 7.7179 71.0094C7.7179 69.7806 8.77119 68.7273 10 68.7273C11.2289 68.7273 12.2822 69.7806 12.2822 71.0094C12.2822 72.2383 11.2289 73.2916 10 73.2916Z" fill="#DCA74A"/>
<path d="M10 90.4953C8.77119 90.4953 7.7179 89.442 7.7179 88.2132C7.7179 86.9843 8.77119 85.931 10 85.931C11.2289 85.931 12.2822 86.9843 12.2822 88.2132C12.2822 89.442 11.2289 90.4953 10 90.4953Z" fill="#DCA74A"/>
</svg>
